STARTFONT 2.1
FONT barcode
SIZE 16 75 75
FONTBOUNDINGBOX 5 6 0 0
STARTPROPERTIES 2
FONT_ASCENT 16
FONT_DESCENT 0
ENDPROPERTIES
CHARS 85
STARTCHAR space
ENCODING 32
SWIDTH 500 0
DWIDTH 0 0
BBX 5 6 0 0
BITMAP
00
00
00
00
00
00
ENDCHAR
STARTCHAR bang
ENCODING 33
SWIDTH 500 0
DWIDTH 0 0
BBX 5 6 0 0
BITMAP
00
00
00
00
00
00
ENDCHAR
STARTCHAR quote
ENCODING 34
SWIDTH 500 0
DWIDTH 0 0
BBX 5 6 0 0
BITMAP
e0
e0
00
00
00
00
ENDCHAR
STARTCHAR pound
ENCODING 35
SWIDTH 500 0
DWIDTH 0 0
BBX 5 6 0 0
BITMAP
e0
e0
14
e0
14
e0
ENDCHAR
STARTCHAR dollar
ENCODING 36
SWIDTH 500 0
DWIDTH 0 0
BBX 5 6 0 0
BITMAP
00
e0
20
c0
e0
00
ENDCHAR
STARTCHAR percent
ENCODING 37
SWIDTH 500 0
DWIDTH 0 0
BBX 5 6 0 0
BITMAP
34
c0
00
20
30
04
ENDCHAR
STARTCHAR amp
ENCODING 38
SWIDTH 500 0
DWIDTH 0 0
BBX 5 6 0 0
BITMAP
c0
20
c0
20
00
c0
ENDCHAR
STARTCHAR apostrophe
ENCODING 39
SWIDTH 500 0
DWIDTH 0 0
BBX 5 6 0 0
BITMAP
00
00
00
00
00
00
ENDCHAR
STARTCHAR left parenthe
ENCODING 40
SWIDTH 500 0
DWIDTH 0 0
BBX 5 6 0 0
BITMAP
20
30
30
30
30
20
ENDCHAR
STARTCHAR right parenth
ENCODING 41
SWIDTH 500 0
DWIDTH 0 0
BBX 5 6 0 0
BITMAP
c0
04
04
04
04
c0
ENDCHAR
STARTCHAR asterisk
ENCODING 42
SWIDTH 500 0
DWIDTH 0 0
BBX 5 6 0 0
BITMAP
34
e0
14
e0
34
00
ENDCHAR
STARTCHAR plus
ENCODING 43
SWIDTH 500 0
DWIDTH 0 0
BBX 5 6 0 0
BITMAP
00
00
14
00
00
00
ENDCHAR
STARTCHAR comma
ENCODING 44
SWIDTH 500 0
DWIDTH 0 0
BBX 5 6 0 0
BITMAP
00
00
00
00
00
20
ENDCHAR
STARTCHAR minus
ENCODING 45
SWIDTH 500 0
DWIDTH 0 0
BBX 5 6 0 0
BITMAP
00
00
14
00
00
00
ENDCHAR
STARTCHAR period
ENCODING 46
SWIDTH 500 0
DWIDTH 0 0
BBX 5 6 0 0
BITMAP
00
00
00
00
20
20
ENDCHAR
STARTCHAR slash
ENCODING 47
SWIDTH 500 0
DWIDTH 0 0
BBX 5 6 0 0
BITMAP
00
04
c0
00
20
30
ENDCHAR
STARTCHAR colon
ENCODING 58
SWIDTH 500 0
DWIDTH 0 0
BBX 5 6 0 0
BITMAP
00
00
00
00
00
00
ENDCHAR
STARTCHAR semicolon
ENCODING 59
SWIDTH 500 0
DWIDTH 0 0
BBX 5 6 0 0
BITMAP
00
00
00
00
00
20
ENDCHAR
STARTCHAR left angle br
ENCODING 560
SWIDTH 500 0
DWIDTH 0 0
BBX 5 6 0 0
BITMAP
00
20
30
20
00
00
ENDCHAR
STARTCHAR equals
ENCODING 61
SWIDTH 500 0
DWIDTH 0 0
BBX 5 6 0 0
BITMAP
00
e0
00
e0
00
00
ENDCHAR
STARTCHAR right angle b
ENCODING 62
SWIDTH 500 0
DWIDTH 0 0
BBX 5 6 0 0
BITMAP
00
c0
04
c0
00
00
ENDCHAR
STARTCHAR question mark
ENCODING 63
SWIDTH 500 0
DWIDTH 0 0
BBX 5 6 0 0
BITMAP
00
e0
c0
00
00
00
ENDCHAR
STARTCHAR backquote
ENCODING 96
SWIDTH 500 0
DWIDTH 0 0
BBX 5 6 0 0
BITMAP
20
00
00
00
00
00
ENDCHAR
STARTCHAR left square b
ENCODING 91
SWIDTH 500 0
DWIDTH 0 0
BBX 5 6 0 0
BITMAP
50
30
30
30
30
00
ENDCHAR
STARTCHAR tilde
ENCODING 126
SWIDTH 500 0
DWIDTH 0 0
BBX 5 6 0 0
BITMAP
00
e0
34
00
00
00
ENDCHAR
STARTCHAR right square 
ENCODING 93
SWIDTH 500 0
DWIDTH 0 0
BBX 5 6 0 0
BITMAP
00
04
04
04
04
c4
ENDCHAR
STARTCHAR carat
ENCODING 94
SWIDTH 500 0
DWIDTH 0 0
BBX 5 6 0 0
BITMAP
00
e0
34
00
00
00
ENDCHAR
STARTCHAR underscore
ENCODING 95
SWIDTH 500 0
DWIDTH 0 0
BBX 5 6 0 0
BITMAP
00
00
00
00
00
e0
ENDCHAR
STARTCHAR at
ENCODING 64
SWIDTH 500 0
DWIDTH 0 0
BBX 5 6 0 0
BITMAP
c0
24
04
04
f0
20
ENDCHAR
STARTCHAR left brace
ENCODING 123
SWIDTH 500 0
DWIDTH 0 0
BBX 5 6 0 0
BITMAP
00
20
50
20
00
00
ENDCHAR
STARTCHAR pipe
ENCODING 124
SWIDTH 500 0
DWIDTH 0 0
BBX 5 6 0 0
BITMAP
00
00
00
00
00
00
ENDCHAR
STARTCHAR right brace
ENCODING 125
SWIDTH 500 0
DWIDTH 0 0
BBX 5 6 0 0
BITMAP
00
c0
c4
c0
00
00
ENDCHAR
STARTCHAR backslash
ENCODING 92
SWIDTH 500 0
DWIDTH 0 0
BBX 5 6 0 0
BITMAP
00
30
20
00
c0
00
ENDCHAR
STARTCHAR A
ENCODING 65
SWIDTH 500 0
DWIDTH 0 0
BBX 5 6 0 0
BITMAP
14
00
00
00
00
00
ENDCHAR
STARTCHAR a
ENCODING 97
SWIDTH 500 0
DWIDTH 0 0
BBX 5 6 0 0
BITMAP
00
00
00
00
00
00
ENDCHAR
STARTCHAR B
ENCODING 66
SWIDTH 500 0
DWIDTH 0 0
BBX 5 6 0 0
BITMAP
14
00
14
14
14
14
ENDCHAR
STARTCHAR b
ENCODING 98
SWIDTH 500 0
DWIDTH 0 0
BBX 5 6 0 0
BITMAP
00
00
14
14
14
14
ENDCHAR
STARTCHAR C
ENCODING 67
SWIDTH 500 0
DWIDTH 0 0
BBX 5 6 0 0
BITMAP
14
14
00
14
14
14
ENDCHAR
STARTCHAR c
ENCODING 99
SWIDTH 500 0
DWIDTH 0 0
BBX 5 6 0 0
BITMAP
00
14
00
14
14
14
ENDCHAR
STARTCHAR D
ENCODING 68
SWIDTH 500 0
DWIDTH 0 0
BBX 5 6 0 0
BITMAP
14
14
14
14
14
14
ENDCHAR
STARTCHAR d
ENCODING 100
SWIDTH 500 0
DWIDTH 0 0
BBX 5 6 0 0
BITMAP
00
14
14
14
14
14
ENDCHAR
STARTCHAR E
ENCODING 69
SWIDTH 500 0
DWIDTH 0 0
BBX 5 6 0 0
BITMAP
14
14
14
00
14
14
ENDCHAR
STARTCHAR e
ENCODING 101
SWIDTH 500 0
DWIDTH 0 0
BBX 5 6 0 0
BITMAP
00
14
14
00
14
14
ENDCHAR
STARTCHAR F
ENCODING 70
SWIDTH 500 0
DWIDTH 0 0
BBX 5 6 0 0
BITMAP
14
14
14
14
14
14
ENDCHAR
STARTCHAR f
ENCODING 102
SWIDTH 500 0
DWIDTH 0 0
BBX 5 6 0 0
BITMAP
00
14
14
14
14
14
ENDCHAR
STARTCHAR G
ENCODING 71
SWIDTH 500 0
DWIDTH 0 0
BBX 5 6 0 0
BITMAP
14
14
14
14
14
14
ENDCHAR
STARTCHAR g
ENCODING 103
SWIDTH 500 0
DWIDTH 0 0
BBX 5 6 0 0
BITMAP
00
14
14
14
14
14
ENDCHAR
STARTCHAR H
ENCODING 72
SWIDTH 500 0
DWIDTH 0 0
BBX 5 6 0 0
BITMAP
14
14
14
14
14
14
ENDCHAR
STARTCHAR h
ENCODING 104
SWIDTH 500 0
DWIDTH 0 0
BBX 5 6 0 0
BITMAP
00
14
14
14
14
14
ENDCHAR
STARTCHAR I
ENCODING 73
SWIDTH 500 0
DWIDTH 0 0
BBX 5 6 0 0
BITMAP
14
14
14
14
00
14
ENDCHAR
STARTCHAR i
ENCODING 105
SWIDTH 500 0
DWIDTH 0 0
BBX 5 6 0 0
BITMAP
00
14
14
14
00
14
ENDCHAR
STARTCHAR J
ENCODING 74
SWIDTH 500 0
DWIDTH 0 0
BBX 5 6 0 0
BITMAP
14
14
14
14
14
14
ENDCHAR
STARTCHAR j
ENCODING 106
SWIDTH 500 0
DWIDTH 0 0
BBX 5 6 0 0
BITMAP
00
14
14
14
14
14
ENDCHAR
STARTCHAR K
ENCODING 75
SWIDTH 500 0
DWIDTH 0 0
BBX 5 6 0 0
BITMAP
14
14
14
14
14
14
ENDCHAR
STARTCHAR k
ENCODING 107
SWIDTH 500 0
DWIDTH 0 0
BBX 5 6 0 0
BITMAP
00
14
14
14
14
14
ENDCHAR
STARTCHAR L
ENCODING 76
SWIDTH 500 0
DWIDTH 0 0
BBX 5 6 0 0
BITMAP
14
14
14
14
14
14
ENDCHAR
STARTCHAR l
ENCODING 108
SWIDTH 500 0
DWIDTH 0 0
BBX 5 6 0 0
BITMAP
00
14
14
14
14
14
ENDCHAR
STARTCHAR M
ENCODING 77
SWIDTH 500 0
DWIDTH 0 0
BBX 5 6 0 0
BITMAP
14
14
14
14
14
14
ENDCHAR
STARTCHAR m
ENCODING 109
SWIDTH 500 0
DWIDTH 0 0
BBX 5 6 0 0
BITMAP
00
14
14
14
14
14
ENDCHAR
STARTCHAR N
ENCODING 78
SWIDTH 500 0
DWIDTH 0 0
BBX 5 6 0 0
BITMAP
14
14
14
14
14
14
ENDCHAR
STARTCHAR n
ENCODING 110
SWIDTH 500 0
DWIDTH 0 0
BBX 5 6 0 0
BITMAP
00
14
14
14
14
14
ENDCHAR
STARTCHAR O
ENCODING 79
SWIDTH 500 0
DWIDTH 0 0
BBX 5 6 0 0
BITMAP
14
14
14
14
14
14
ENDCHAR
STARTCHAR o
ENCODING 111
SWIDTH 500 0
DWIDTH 0 0
BBX 5 6 0 0
BITMAP
00
14
14
14
14
14
ENDCHAR
STARTCHAR P
ENCODING 80
SWIDTH 500 0
DWIDTH 0 0
BBX 5 6 0 0
BITMAP
14
14
14
14
14
14
ENDCHAR
STARTCHAR p
ENCODING 112
SWIDTH 500 0
DWIDTH 0 0
BBX 5 6 0 0
BITMAP
00
14
14
14
14
14
ENDCHAR
STARTCHAR Q
ENCODING 81
SWIDTH 500 0
DWIDTH 0 0
BBX 5 6 0 0
BITMAP
14
14
14
14
14
00
ENDCHAR
STARTCHAR q
ENCODING 113
SWIDTH 500 0
DWIDTH 0 0
BBX 5 6 0 0
BITMAP
00
14
14
14
14
00
ENDCHAR
STARTCHAR R
ENCODING 82
SWIDTH 500 0
DWIDTH 0 0
BBX 5 6 0 0
BITMAP
14
14
14
14
14
14
ENDCHAR
STARTCHAR r
ENCODING 114
SWIDTH 500 0
DWIDTH 0 0
BBX 5 6 0 0
BITMAP
00
14
14
14
14
14
ENDCHAR
STARTCHAR S
ENCODING 83
SWIDTH 500 0
DWIDTH 0 0
BBX 5 6 0 0
BITMAP
14
14
14
14
14
14
ENDCHAR
STARTCHAR s
ENCODING 115
SWIDTH 500 0
DWIDTH 0 0
BBX 5 6 0 0
BITMAP
00
14
14
14
14
14
ENDCHAR
STARTCHAR T
ENCODING 84
SWIDTH 500 0
DWIDTH 0 0
BBX 5 6 0 0
BITMAP
14
14
14
14
14
14
ENDCHAR
STARTCHAR t
ENCODING 116
SWIDTH 500 0
DWIDTH 0 0
BBX 5 6 0 0
BITMAP
00
14
14
14
14
14
ENDCHAR
STARTCHAR U
ENCODING 85
SWIDTH 500 0
DWIDTH 0 0
BBX 5 6 0 0
BITMAP
14
14
14
14
14
14
ENDCHAR
STARTCHAR u
ENCODING 117
SWIDTH 500 0
DWIDTH 0 0
BBX 5 6 0 0
BITMAP
00
14
14
14
14
14
ENDCHAR
STARTCHAR V
ENCODING 86
SWIDTH 500 0
DWIDTH 0 0
BBX 5 6 0 0
BITMAP
14
14
14
14
14
14
ENDCHAR
STARTCHAR v
ENCODING 118
SWIDTH 500 0
DWIDTH 0 0
BBX 5 6 0 0
BITMAP
00
14
14
14
14
14
ENDCHAR
STARTCHAR W
ENCODING 87
SWIDTH 500 0
DWIDTH 0 0
BBX 5 6 0 0
BITMAP
14
14
14
14
14
14
ENDCHAR
STARTCHAR w
ENCODING 119
SWIDTH 500 0
DWIDTH 0 0
BBX 5 6 0 0
BITMAP
00
14
14
14
14
14
ENDCHAR
STARTCHAR X
ENCODING 88
SWIDTH 500 0
DWIDTH 0 0
BBX 5 6 0 0
BITMAP
14
14
14
14
14
14
ENDCHAR
STARTCHAR x
ENCODING 120
SWIDTH 500 0
DWIDTH 0 0
BBX 5 6 0 0
BITMAP
00
14
14
14
14
14
ENDCHAR
STARTCHAR Y
ENCODING 89
SWIDTH 500 0
DWIDTH 0 0
BBX 5 6 0 0
BITMAP
14
14
14
14
14
14
ENDCHAR
STARTCHAR y
ENCODING 121
SWIDTH 500 0
DWIDTH 0 0
BBX 5 6 0 0
BITMAP
00
14
14
14
14
14
ENDCHAR
STARTCHAR Z
ENCODING 90
SWIDTH 500 0
DWIDTH 0 0
BBX 5 6 0 0
BITMAP
14
14
14
14
14
14
ENDCHAR
STARTCHAR z
ENCODING 122
SWIDTH 500 0
DWIDTH 0 0
BBX 5 6 0 0
BITMAP
00
14
14
14
14
14
ENDCHAR
ENDFONT
